Coordinates
version=1
nRows=19
nColumns=36
inDegrees=yes

Units are S.I. units (second, meters, Newtons, ...)
If the header above contains a line with 'inDegrees', this indicates whether rotational values are in degrees (yes) or radians (no).

endheader
time	pelvis_tilt	pelvis_list	pelvis_rotation	pelvis_tx	pelvis_ty	pelvis_tz	hip_flexion_r	hip_adduction_r	hip_rotation_r	knee_angle_r	knee_angle_r_beta	ankle_angle_r	subtalar_angle_r	mtp_angle_r	hip_flexion_l	hip_adduction_l	hip_rotation_l	knee_angle_l	knee_angle_l_beta	ankle_angle_l	subtalar_angle_l	mtp_angle_l	lumbar_extension	lumbar_bending	lumbar_rotation	arm_flex_r	arm_add_r	arm_rot_r	elbow_flex_r	pro_sup_r	arm_flex_l	arm_add_l	arm_rot_l	elbow_flex_l	pro_sup_l
      0.00000000	      0.37981358	      0.81653593	     16.85201243	      0.88275485	      0.99268940	      0.11784054	     34.95753787	     -2.23128146	      3.97963231	     24.01912806	      0.41921287	     -4.20436363	     -8.68163046	     -6.57604375	      9.67401543	      8.74765314	      6.97625814	     22.82467642	      0.39836575	      9.42909835	    -10.10105225	     -6.57604375	    -19.22208071	     -2.50737895	     -6.47558127	     32.64198485	     -0.60452181	     55.05724648	    117.30291697	     89.88851411	     40.15590275	    -14.38330978	     71.35951695	    127.27712437	     86.85861305
      0.01666670	     -0.95646441	     -1.25649731	     18.20098326	      0.88087740	      0.98512186	      0.11924521	     37.24999060	     -1.02105041	      4.60655377	     21.23324335	      0.37059001	     -3.35532018	     -5.89180194	     -6.72941185	     13.29180684	      7.20852678	      7.31463918	     26.58507594	      0.46399711	     12.79310391	     -9.97377943	     -6.72941185	    -19.68334715	     -1.15271284	     -4.43567984	     33.82129145	     -3.51954942	     60.75916986	    122.39119226	    101.27000053	     43.19242228	    -12.30948139	     70.99225299	    129.70673931	    104.82681567
      0.03333330	     -2.13734170	     -0.87937796	     17.49370502	      0.88162131	      0.98091426	      0.12307757	     38.75602431	     -1.90344522	      2.49347821	     18.92584635	      0.33031833	     -1.61230941	     -1.17771820	     -6.87579256	     16.28020102	      8.08316382	      6.84146225	     29.64197805	      0.51735011	     14.31634755	    -11.91739878	     -6.87579256	    -18.82990654	     -2.34396498	     -4.27596830	     33.50259746	     -0.74134909	     58.82812380	    122.88796426	    102.31957245	     43.72773710	    -12.58244350	     71.19124790	    130.50809629	    109.25608161
      0.05000000	     -2.85514130	     -1.13899433	     17.51715888	      0.88081948	      0.97722137	      0.12502335	     40.55363634	     -2.34830356	      0.80010646	     19.91737881	      0.34762384	      1.88551915	      3.95910319	     -6.89362967	     19.16954906	      8.38489825	      7.09510580	     32.95100699	      0.57510356	     17.19127831	    -10.83401859	     -6.89362967	    -18.47080070	     -2.40452335	     -4.72783597	     33.71310611	      0.71300975	     57.89845316	    122.38725375	    102.22752188	     44.77661678	    -12.44113244	     71.20882537	    130.86636714	    109.17473107
      0.06666670	     -3.89029638	     -1.24366266	     17.17362992	      0.87922891	      0.97447692	      0.12614346	     43.23697835	     -2.62966735	      0.38820254	     22.84937211	      0.39879678	      3.19962922	      6.58017159	     -6.97580279	     21.95519625	      8.77521405	      6.89172334	     35.60212348	      0.62137428	     19.65963848	     -9.98361792	     -6.97580279	    -18.36601027	     -2.83824435	     -4.77235045	     33.88526114	      1.20140644	     57.82602140	    122.18725252	    100.29548423	     45.76357011	    -11.90771777	     71.47701310	    130.77579248	    107.31097002
      0.08333330	     -4.56384383	     -1.00734393	     17.13414183	      0.87698147	      0.97152173	      0.12613684	     45.43881477	     -3.15779748	      0.85838194	     25.73313461	      0.44912793	      2.79788736	      7.06695827	     -7.03022104	     23.68792165	      9.35120989	      6.76931534	     37.15406124	      0.64846070	     21.28412125	     -8.96897365	     -7.03022104	    -18.95071471	     -3.35159745	     -4.80849157	     34.33517914	      1.25575757	     57.80345715	    122.07850951	     98.72592746	     47.07682173	    -11.30399315	     71.96160237	    130.30593135	    105.10227162
      0.10000000	     -4.98228771	     -0.68016366	     17.25894245	      0.87570621	      0.96870176	      0.12574348	     47.12388261	     -3.70843154	      1.70453198	     27.82363434	      0.48561403	      1.87974585	      6.54553292	     -7.08782795	     24.77690913	      9.85821421	      6.60538244	     38.09018103	      0.66479907	     22.33712535	     -8.04753285	     -7.08782795	    -19.76884431	     -3.91734250	     -4.47530099	     34.68562300	      0.87985654	     57.24944417	    122.25050043	     98.35116964	     48.77570483	    -10.24894915	     73.11254014	    129.15989909	    103.52610783
      0.11666670	     -5.10490886	     -0.37645021	     17.53973140	      0.87526157	      0.96684804	      0.12593148	     48.21456838	     -4.25977275	      2.38156658	     29.10140213	      0.50791528	      1.21673794	      5.98403597	     -7.09244917	     25.31951827	     10.26404184	      6.63511309	     38.66244284	      0.67478692	     22.76832976	     -7.64813167	     -7.09244917	    -20.81714343	     -4.13546576	     -4.78235741	     35.53584381	      0.80298165	     57.13674256	    121.94890912	     98.43568691	     49.61474883	     -9.85293586	     73.37978447	    128.73398995	    103.35038654
      0.13333330	     -5.39723660	     -0.08613794	     17.71740728	      0.87409132	      0.96592198	      0.12731305	     49.27014046	     -4.67538350	      3.18562531	     29.71379107	      0.51860349	      0.48216322	      4.99067466	     -7.21115204	     25.89948392	     10.53554043	      6.38517135	     39.01353221	      0.68091459	     22.98440818	     -7.05318303	     -7.21115204	    -21.65854720	     -4.59520555	     -4.32823192	     35.84449100	      0.34542681	     56.57047676	    122.18811347	     98.98704297	     51.11827503	     -9.12003769	     75.21344441	    128.10299033	     98.16252751
      0.15000000	     -5.60765852	      0.12239568	     18.05912993	      0.87099962	      0.96466239	      0.12833972	     50.16643201	     -5.15881317	      3.62823148	     29.93129745	      0.52239969	     -0.12629325	      4.27977105	     -7.23635264	     26.46819429	     10.79176442	      6.29975683	     39.42894744	      0.68816495	     22.92523854	     -6.83584155	     -7.23635264	    -22.59096986	     -4.78120275	     -4.37209300	     36.65894107	      0.02204359	     56.39189580	    121.89156380	     97.91201821	     52.03307099	     -8.80028442	     75.97716424	    127.82192476	     96.94955841
      0.16666670	     -5.90581022	      0.30333879	     18.46068152	      0.86692218	      0.96143170	      0.12854850	     51.34451175	     -5.70221662	      4.01604828	     30.23390916	      0.52768126	     -0.41975449	      3.80723975	     -7.25330911	     27.42647118	     11.14302498	      6.22594123	     40.25023525	      0.70249913	     22.97669628	     -6.75488184	     -7.25330911	    -23.40401825	     -4.90750591	     -4.48669718	     37.75609342	     -0.22918564	     56.26366013	    121.79874995	     97.32822876	     53.15782282	     -8.48717953	     76.37620478	    127.38370484	     96.11738267
      0.18333330	     -6.16845519	      0.51058668	     18.87216807	      0.86215765	      0.95725163	      0.12880236	     52.73121423	     -6.27302947	      4.40929715	     30.78295000	      0.53726383	     -0.45177793	      3.59756816	     -7.33055779	     28.69634367	     11.61377648	      6.13914437	     41.54684178	      0.72512918	     23.18389079	     -6.91071030	     -7.33055779	    -24.17700548	     -5.09455293	     -4.46792421	     38.99499039	     -0.62923544	     55.92172574	    121.87168978	     96.29260365	     54.73524424	     -8.04261166	     76.99009222	    126.52921908	     92.83022786
      0.20000000	     -6.42480138	      0.69103942	     19.30240660	      0.85697306	      0.95173819	      0.13017261	     54.32206584	     -6.81975776	      4.82684782	     31.58778786	      0.55131090	     -0.40392519	      3.55634911	     -7.33876423	     30.25102760	     12.13081606	      6.06991787	     43.23293977	      0.75455714	     23.43716853	     -7.25042753	     -7.33876423	    -24.83110034	     -5.16520616	     -4.81564146	     40.72094576	     -0.62048872	     55.62598156	    121.87114752	     95.73128206	     56.19716233	     -7.92405838	     76.82322337	    126.28624407	     92.08071630
      0.21666670	     -6.62406825	      0.91784959	     19.60862450	      0.85186976	      0.94786784	      0.13224287	     55.79928799	     -7.28592583	      5.24329934	     32.34527115	      0.56453148	     -0.47982724	      3.69536825	     -7.34888859	     31.70028131	     12.58213837	      5.85298092	     44.86291963	      0.78300566	     23.62640102	     -7.75771345	     -7.34888859	    -25.65837689	     -5.30535456	     -4.95809867	     42.55723822	     -0.62793428	     55.40046816	    122.03060620	     94.91382924	     57.88493648	     -7.92133534	     77.21072804	    126.20776206	     91.26863438
      0.23333330	     -6.77030778	      1.06525789	     19.87465814	      0.84832573	      0.94573476	      0.13358982	     56.96368313	     -7.67095451	      5.54716468	     32.86361850	      0.57357835	     -0.74821497	      3.89654213	     -7.35899656	     32.85619755	     12.86167927	      5.66294696	     46.21479994	      0.80660042	     23.62425231	     -8.15887769	     -7.35899656	    -26.56133431	     -5.34662343	     -4.97232841	     43.84367460	     -0.76006526	     55.02834974	    121.88833236	     93.93426636	     59.39722054	     -8.08844843	     77.29605177	    126.26827682	     90.33701745
      0.25000000	     -6.99316904	      1.07192026	     20.06686299	      0.84721579	      0.94249177	      0.13402681	     58.01336998	     -7.96058499	      5.73047045	     33.24738748	      0.58027638	     -1.18099759	      4.11784338	     -7.36548693	     33.88132777	     12.95844554	      5.49937550	     47.37078468	      0.82677616	     23.66359066	     -8.39353023	     -7.36548693	    -27.24397321	     -5.29227801	     -4.95035673	     44.58858482	     -0.70993355	     54.71414591	    121.60724921	     93.13044248	     60.53274558	     -8.30960974	     77.02111095	    126.25257808	     89.45410633
      0.26666670	     -7.19723629	      1.14002428	     20.17921798	      0.84657088	      0.93846438	      0.13449281	     58.95974277	     -8.17718450	      6.16931728	     33.76445732	      0.58930095	     -1.47089223	      4.10302502	     -7.37613022	     34.75417234	     13.01533217	      5.20640857	     48.43746909	      0.84539332	     23.71739931	     -8.38990699	     -7.37613022	    -28.00485892	     -5.37913449	     -4.94919144	     45.18227929	     -0.72192567	     54.78548927	    121.65806460	     92.01908492	     62.22510099	     -8.50795810	     78.00696870	    126.31556905	     88.42622830
      0.28333330	     -7.48884963	      1.00984631	     20.34365130	      0.84374987	      0.93306118	      0.13557925	     60.18313607	     -8.34790632	      6.49561413	     34.60229582	      0.60392399	     -1.80004984	      4.07649539	     -7.38433321	     36.07135684	     12.99408232	      4.96242682	     49.92486266	      0.87135323	     23.87591856	     -8.48560368	     -7.38433321	    -28.67182084	     -5.21781343	     -5.06159006	     46.01762315	     -0.64332446	     54.56782210	    121.45804271	     90.77792102	     63.52331280	     -8.49068029	     77.83950867	    126.25179171	     87.16551363
      0.30000000	     -7.79778520	      0.91635489	     20.48545815	      0.84001037	      0.92921231	      0.13709283	     61.44735769	     -8.44498260	      7.09352384	     35.52297326	      0.61999284	     -2.13709885	      3.72382592	     -7.39164856	     37.53509372	     12.93152386	      4.53512192	     51.49258713	      0.89871519	     24.00980625	     -8.30198924	     -7.39164856	    -29.62874667	     -5.16865676	     -5.12460744	     47.27937382	     -0.89237685	     54.78140212	    122.06910041	     89.76867676	     65.62203504	     -8.39808203	     78.60821727	    126.30697716	     86.29516712
